<svg id="Layer_1" enable-background="new 0 0 256 256" height="512" viewBox="0 0 256 256" width="512" xmlns="http://www.w3.org/2000/svg"><path d="m186.899 56.067c-18.12-15.37-41.58-24.63-67.2-24.63-6.31 0-12.5.56-18.5 1.64-18.17 3.26-34.71 11.25-48.29 22.65-2.99 2.49-5.83 5.16-8.52 7.99-17.78 18.65-28.69 43.91-28.69 71.72 0 3.94.22 7.82.66 11.64 1.388 12.525 5.012 24.371 10.447 35.147l7.282 12.26c7.865 11.384 17.935 21.129 29.601 28.603 4.84 3.1 9.95 5.8 15.3 8.08 12.5 5.32 26.26 8.27 40.71 8.27 9.11 0 17.95-1.17 26.37-3.37 3.31-.87 6.55-1.89 9.72-3.06 39.26-14.53 67.35-52.06 67.9-96.24v-.01c.01-.44.01-.88.01-1.32 0-31.821-14.29-60.3-36.8-79.37z" fill="#8ac6dd"/><path d="m187.87 54.922c-18.996-16.112-43.206-24.986-68.17-24.986-6.319 0-12.632.56-18.765 1.664-17.987 3.227-34.927 11.172-48.985 22.974-2.99 2.49-5.899 5.218-8.646 8.107-18.768 19.687-29.104 45.525-29.104 72.755 0 3.978.226 7.952.669 11.805 1.38 12.455 4.946 24.452 10.599 35.658.374.741 1.277 1.038 2.015.664.739-.373 1.037-1.275.664-2.015-5.491-10.885-8.955-22.539-10.296-34.643-.432-3.747-.65-7.605-.65-11.468 0-26.456 10.042-51.559 28.277-70.686 2.668-2.807 5.492-5.455 8.397-7.875 13.662-11.469 30.119-19.188 47.591-22.323 5.958-1.072 12.093-1.616 18.234-1.616 24.254 0 47.775 8.621 66.23 24.274 23.05 19.528 36.27 48.04 36.27 78.226 0 .429 0 .858-.01 1.312-.263 21.099-6.886 41.288-19.152 58.383-12.011 16.738-28.529 29.349-47.767 36.469-3.111 1.148-6.335 2.163-9.58 3.016-8.434 2.204-17.179 3.321-25.991 3.321-13.917 0-27.417-2.742-40.122-8.15-5.246-2.236-10.319-4.915-15.079-7.963-11.545-7.396-21.362-16.882-29.176-28.192-.47-.682-1.405-.854-2.086-.381-.682.471-.852 1.405-.381 2.086 8.041 11.64 18.143 21.401 30.026 29.013 4.899 3.138 10.122 5.896 15.522 8.197 13.079 5.567 26.974 8.39 41.297 8.39 9.068 0 18.068-1.15 26.751-3.419 3.34-.877 6.657-1.921 9.859-3.104 19.803-7.329 36.804-20.308 49.164-37.534 12.628-17.597 19.445-38.377 19.715-60.09.01-.452.01-.902.01-1.354-.001-31.07-13.607-60.416-37.33-80.515z" fill="#3a312a"/><path d="m97.159 178.027c-.85-.36-1.77-.52-2.59-.93-.98-.5-1.75-1.32-2.5-2.13l-5.88-6.32c-1.681-1.804-3.85-3.049-6.211-3.731-1.185-.343-2.459-.314-3.623-.636-1.01-.28-1.234-.728-1.911-1.564-.696-.859-1.794-1.314-2.891-1.456-3.764-.489-8.177.693-11.479 2.44-1.876.993-2.667-1.693-4.795-1.843-7.031-.496-10.891-6.972-17.786-8.445-1.077-.23-2.228-.407-3.071-1.116-1.622-1.365-1.303-3.993-.298-5.861.655-1.217 1.712-2.41 3.093-2.475 1.709-.081 2.948 1.53 3.941 2.924 1.425 1.999 2.991 3.896 4.685 5.672.987 1.036 2.346 2.116 3.701 1.654 1.675-.572 1.787-2.922 1.261-4.612-.828-2.662-8.702-9.349-7.502-11.267 2.827-4.518 7.827-6.372 7.932-12.468.014-.836-.062-1.701.236-2.481.133-.348 7.245-6.33 6.819-6.407 1.704.308 3.408.616 5.111.924 1.278.231 2.939.282 3.499-.89.509-1.064-.387-2.307-1.426-2.868-1.038-.561-2.265-.773-3.193-1.503-.927-.73-1.337-2.345-.37-3.021.709-.496 1.678-.188 2.481.136 1.828.737 12.492 5.976 12.945 1.874.359-3.251-5.49-3.481-6.58-6.561-.782-2.177 1.239-5.004-1.275-6.541-1.171-.716-2.707-.555-3.912-1.21-3.143-1.709-1.854-6.152-3.883-8.588-1.094-1.313-3.398-1.747-4.454-.403-1.056 1.345-.363 3.156-.417 4.683-.036 1.022-.553 2.172-1.554 2.381-1.555.324-2.447-1.651-3.626-2.715-1.277-1.153-3.181-1.274-4.888-1.054-3.593.462-8.677 1.146-8.433-4.434 2.906-.277 5.776-.387 8.56-1.423.818-.305 6.444-4.177 6.484-4.161-1.892-.722-7.923-.069-8.17-2.355-.248-2.294 3.586-2.538 5.043-2.119 1.25.361 2.632.041 3.384-1.014 1.022-1.433.026-2.638-.881-3.595-2.53-2.67-5.06-5.35-7.59-8.02-.24-.25-.49-.51-.76-.78-17.78 18.65-28.69 43.91-28.69 71.72 0 3.94.22 7.82.66 11.64 4.258.053 9.829-.59 9.856 5.08.028 5.939 6.868 7.604 11.492 9.209 5.462 1.901 10.722 4.391 15.652 7.391-1.39 3.76 2.33 7.31 5.62 9.6s7.03 5.78 5.71 9.56c-.66 1.92-2.6 3.46-2.45 5.49.06.94.59 1.78 1.11 2.57 2.25 3.41 4.76 6.64 7.51 9.66.96 1.06-3.03 9.15-7.17 17.45 4.84 3.1 9.95 5.8 15.3 8.08 4.81-4.83 11.36-11.41 14.21-14.23 2.61-2.58 7.37-1.77 7.83-5.41.41-3.27-1.14-6.45-1.42-9.74-.38-4.28 4.48-11.1 5.09-15.35s-3.576-6.751-7.536-8.411z" fill="#d7e057"/><path d="m97.744 176.645c-.445-.188-.876-.321-1.293-.45-.444-.137-.863-.266-1.2-.434-.762-.389-1.433-1.113-2.083-1.815l-5.88-6.321c-1.799-1.932-4.182-3.367-6.892-4.15-.72-.208-1.419-.295-2.095-.378-.557-.069-1.083-.134-1.545-.262-.394-.109-.43-.155-.87-.715l-.277-.348c-.875-1.079-2.247-1.788-3.862-1.998-3.749-.487-8.374.486-12.373 2.602-.06.032-.095.042-.097.045-.151-.036-.533-.353-.787-.564-.709-.588-1.681-1.394-3.105-1.494-3.352-.236-5.981-2.058-8.764-3.987-2.613-1.81-5.314-3.682-8.814-4.429l-.345-.072c-.827-.171-1.608-.333-2.073-.724-.937-.789-.67-2.651.057-4.002.553-1.028 1.241-1.659 1.842-1.687.943-.043 1.841 1.163 2.649 2.295 1.461 2.049 3.082 4.013 4.82 5.836 1.831 1.921 3.604 2.61 5.271 2.039 2.507-.855 3.009-3.906 2.209-6.477-.44-1.414-2.024-3.238-3.859-5.35-1.289-1.483-3.404-3.918-3.673-4.879.872-1.332 1.996-2.46 3.085-3.554 2.392-2.404 4.867-4.89 4.946-9.48.003-.174.002-.349.001-.525-.001-.451-.003-.882.072-1.225.425-.411 1.509-1.372 2.404-2.166 1.86-1.649 3.008-2.667 3.696-3.363l4.227.765c3.267.591 4.587-.608 5.119-1.718.885-1.85-.354-3.911-2.065-4.835-.503-.271-1.003-.461-1.486-.644-.574-.217-1.116-.422-1.492-.718-.195-.154-.314-.425-.346-.603.145.011.429.071.968.288.194.078.493.21.872.377 5.059 2.228 10.09 4.09 12.621 2.631.856-.494 1.391-1.332 1.504-2.36.305-2.761-2.128-4.075-3.904-5.035-1.202-.649-2.444-1.32-2.755-2.198-.18-.5-.092-1.227.001-1.995.186-1.541.467-3.868-1.905-5.319-.839-.512-1.73-.684-2.517-.835-.558-.107-1.085-.208-1.461-.413-1.114-.605-1.385-1.796-1.735-3.688-.278-1.5-.593-3.199-1.711-4.542-.923-1.108-2.392-1.791-3.846-1.762-1.205.018-2.248.512-2.94 1.393-1.118 1.424-.949 3.047-.813 4.351.046.441.089.857.077 1.205-.02.569-.281.95-.36.966-.224.047-.854-.72-1.193-1.13-.345-.417-.702-.849-1.123-1.229-1.423-1.285-3.469-1.766-6.141-1.421-2.05.265-4.86.626-6.008-.428-.29-.266-.488-.654-.594-1.161 2.457-.214 4.994-.449 7.501-1.382.563-.209 1.919-1.065 5.581-3.52.538-.36.945-.634 1.096-.729.305-.166.553-.436.686-.785.294-.773-.094-1.639-.868-1.934-.002 0-.001 0-.007-.003-.017-.006-.034-.012-.051-.019-.024-.009-.048-.017-.071-.025-.822-.281-1.928-.37-3.198-.472-1.094-.088-3.322-.267-3.883-.686.21-.401 2.101-.725 3.132-.428 1.931.556 3.949-.08 5.022-1.584 1.802-2.527-.243-4.686-1.013-5.498l-7.597-8.028c-.247-.257-.504-.523-.781-.801-.285-.286-.635-.432-1.079-.439-.404.005-.789.172-1.067.465-18.768 19.687-29.104 45.525-29.104 72.755 0 3.978.226 7.952.67 11.812.086.75.717 1.319 1.472 1.329.428.005.871.004 1.321.002 4.864.004 7.038.316 7.054 3.585.031 6.456 6.465 8.601 11.163 10.167.46.153.909.303 1.337.451 4.988 1.736 9.832 3.983 14.417 6.687-.393 2.542.686 6.077 6.492 10.118 2.894 2.015 6.137 5.009 5.148 7.841-.196.569-.58 1.158-.987 1.782-.783 1.199-1.669 2.558-1.542 4.292.088 1.375.82 2.487 1.356 3.3 2.22 3.365 4.709 6.583 7.4 9.565-.207 2.128-4.53 10.795-7.15 16.049-.342.686-.112 1.519.533 1.933 4.899 3.138 10.122 5.896 15.521 8.197.189.081.389.12.587.12.392 0 .776-.153 1.063-.441l.65-.653c4.827-4.847 10.833-10.878 13.552-13.569.827-.817 2.021-1.224 3.286-1.653 2.044-.695 4.589-1.561 4.978-4.637.282-2.248-.228-4.365-.722-6.413-.304-1.262-.591-2.453-.692-3.646-.182-2.045 1.281-5.259 2.571-8.094 1.14-2.504 2.216-4.87 2.509-6.91.871-6.105-6.145-9.047-8.445-10.011zm5.47 9.578c-.232 1.615-1.268 3.892-2.27 6.093-1.515 3.328-3.081 6.769-2.83 9.597.12 1.415.448 2.774.765 4.089.45 1.868.875 3.632.662 5.335-.14 1.11-.925 1.477-2.967 2.171-1.458.496-3.112 1.058-4.43 2.361-2.714 2.686-8.68 8.676-13.497 13.514-4.501-1.971-8.869-4.268-13.01-6.843 6.704-13.487 7.705-16.398 6.332-17.915-2.685-2.949-5.163-6.137-7.366-9.475-.454-.689-.832-1.304-.867-1.855-.055-.737.462-1.529 1.06-2.446.467-.715.996-1.525 1.31-2.439 1.291-3.695-.819-7.492-6.269-11.286-2.368-1.648-6.175-4.859-5.07-7.849.249-.673-.014-1.428-.627-1.801-5.043-3.069-10.406-5.601-15.94-7.526-.44-.153-.9-.306-1.373-.464-5.151-1.717-9.092-3.348-9.111-7.336-.031-6.576-6.003-6.59-10.009-6.571-.337-3.328-.507-6.733-.507-10.142 0-25.934 9.648-50.566 27.205-69.545l7.247 7.657c1.115 1.177.953 1.404.748 1.692-.388.544-1.158.613-1.749.443-1.414-.404-4.245-.381-5.835.957-.835.703-1.231 1.685-1.113 2.766.259 2.393 2.938 2.92 5.485 3.167-1.229.812-2.501 1.635-2.831 1.783-2.177.81-4.455 1.008-6.865 1.218-.438.038-.875.076-1.315.118-.745.071-1.323.68-1.356 1.428-.092 2.097.462 3.711 1.646 4.799 2.175 1.999 5.785 1.533 8.477 1.188 1.172-.151 2.765-.156 3.691.68.259.234.531.564.82.914.846 1.024 2.131 2.575 4.117 2.157 1.817-.378 2.689-2.179 2.747-3.796.02-.557-.037-1.099-.091-1.622-.111-1.069-.154-1.75.189-2.188.125-.159.335-.241.624-.246.542.004 1.157.273 1.497.683.617.74.836 1.92 1.066 3.168.368 1.986.825 4.458 3.253 5.777.785.427 1.604.584 2.328.724.588.113 1.144.22 1.518.449.619.378.692.737.491 2.399-.125 1.031-.266 2.2.152 3.363.694 1.96 2.532 2.953 4.154 3.83 1.795.969 2.419 1.427 2.349 2.066-.006.053-.015.082-.013.086-.238.186-1.769.819-9.921-2.773-.417-.183-.746-.328-.959-.414-.734-.296-2.453-.99-3.902.026-.743.52-1.166 1.331-1.193 2.285-.033 1.169.554 2.403 1.496 3.144.738.581 1.56.892 2.285 1.167.409.155.795.301 1.122.478.522.282.802.765.786.9-.028.057-.492.313-1.879.062l-5.111-.924s0 0-.001 0c-.684-.124-1.349.241-1.628.846-.571.604-2.509 2.322-3.707 3.384-2.854 2.53-2.972 2.647-3.151 3.116-.34.89-.337 1.761-.334 2.531l-.001.461c-.058 3.382-1.83 5.163-4.073 7.416-1.26 1.266-2.563 2.576-3.631 4.282-1.287 2.057 1.082 4.783 4.081 8.235 1.339 1.542 3.007 3.46 3.26 4.274.381 1.227.229 2.561-.314 2.746-.441.154-1.219-.312-2.13-1.269-1.64-1.721-3.17-3.575-4.549-5.508-.979-1.375-2.625-3.673-5.233-3.551-1.713.082-3.255 1.24-4.343 3.263-1.279 2.376-1.62 5.806.653 7.719 1.046.88 2.295 1.138 3.397 1.366l.326.068c2.912.622 5.253 2.244 7.732 3.961 2.994 2.074 6.089 4.219 10.262 4.513.431.031.817.327 1.4.811.849.704 2.271 1.885 4.202.861 3.42-1.809 7.474-2.679 10.584-2.278.837.109 1.537.442 1.919.914l.247.312c.558.71 1.085 1.381 2.429 1.753.675.187 1.336.269 1.977.348.586.073 1.139.141 1.63.283 2.188.633 4.1 1.778 5.529 3.312l5.878 6.318c.749.809 1.682 1.815 2.93 2.452.569.285 1.153.465 1.669.624.339.104.68.207 1.012.348 4.897 2.052 7.005 4.217 6.632 6.811z" fill="#3a312a"/><path d="m116.439 45.577c-4.95-3.71-9.91-8.6-15.24-12.5-18.17 3.26-34.71 11.25-48.29 22.65.94.94 2.01 1.73 3.26 2.33 1.68.81 3.61 1.23 4.96 2.52 3.27 3.12 1.72 9.81 5.76 11.83 1.17.58 2.54.58 3.75 1.05 2.28.88 3.6 3.2 5.43 4.82s5.19 2.24 6.36.1c.64-1.17.28-2.65.66-3.93.77-2.55 4.07-3.33 6.7-2.9 2.63.42 5.21 1.61 7.85 1.25s5.13-3.39 3.64-5.6c4.3 1.5 9.94 2.63 12.69-1-1.87-1.73-3.91-4.29-2.69-6.53.52-.94 1.57-1.6 1.81-2.65.3-1.33-.79-2.51-1.47-3.7-.67-1.18-.55-3.21.81-3.33 1.98 2.64 5.7 3.82 8.85 2.81.29-3.02-2.41-5.4-4.84-7.22z" fill="#d7e057"/><path d="m117.339 44.376c-2.297-1.722-4.572-3.681-6.979-5.755-2.662-2.292-5.414-4.663-8.274-6.755-.332-.242-.748-.339-1.15-.266-17.987 3.227-34.927 11.172-48.99 22.978-.322.271-.516.664-.534 1.084s.141.829.438 1.126c1.113 1.112 2.314 1.969 3.669 2.62.568.274 1.144.5 1.701.719 1.107.435 2.153.845 2.875 1.535 1.17 1.116 1.589 2.998 2.033 4.991.593 2.664 1.266 5.683 4.096 7.098.823.408 1.677.581 2.431.734.525.106 1.021.207 1.445.372 1.177.454 2.124 1.512 3.125 2.633.575.644 1.17 1.309 1.851 1.911 1.31 1.16 3.133 1.848 4.776 1.848.314 0 .621-.025.917-.077 1.314-.229 2.372-.966 2.977-2.074.534-.976.582-1.986.625-2.878.024-.501.047-.975.155-1.338.481-1.595 2.93-2.194 5.027-1.853.806.129 1.618.339 2.477.562 1.848.479 3.76.974 5.812.693 2.099-.286 4.091-1.778 4.958-3.712.18-.403.303-.812.368-1.219 5.679 1.522 9.71.771 11.997-2.249.466-.615.389-1.483-.177-2.007-.991-.917-3.208-3.212-2.396-4.703.129-.233.362-.496.608-.773.5-.564 1.123-1.267 1.353-2.272.373-1.655-.493-2.991-1.188-4.064-.146-.224-.291-.447-.419-.668 2.448 1.878 5.834 2.561 8.792 1.61.571-.183.978-.688 1.035-1.285.354-3.696-2.548-6.404-5.434-8.566zm-3.71 4.711c-.311-.415-.81-.638-1.331-.594-.932.082-1.722.616-2.167 1.465-.607 1.155-.531 2.841.186 4.103.162.284.345.568.53.853.43.664.875 1.35.78 1.769-.058.253-.357.59-.672.947-.327.369-.698.788-.993 1.32-.831 1.526-1.1 3.968 1.881 7.238-1.969 1.376-5.347 1.241-10.07-.407-.613-.212-1.289-.01-1.682.501-.395.512-.417 1.218-.056 1.754.091.135.368.545.025 1.309-.437.976-1.565 1.821-2.625 1.965-1.463.2-3.015-.2-4.654-.625-.89-.23-1.809-.469-2.751-.619-3.404-.555-7.374.622-8.38 3.954-.213.717-.247 1.428-.277 2.055-.031.65-.058 1.212-.261 1.582-.106.194-.31.462-.861.559-.945.17-2.316-.291-3.188-1.062-.549-.486-1.061-1.059-1.603-1.665-1.195-1.336-2.43-2.717-4.279-3.431-.661-.256-1.307-.387-1.932-.514-.629-.127-1.224-.248-1.69-.479-1.549-.774-1.992-2.763-2.505-5.064-.498-2.233-1.061-4.764-2.89-6.508-1.148-1.097-2.583-1.661-3.85-2.158-.505-.199-1.011-.396-1.497-.63-.559-.269-1.085-.583-1.586-.951 13.221-10.715 28.936-17.986 45.597-21.085 2.585 1.931 5.118 4.112 7.572 6.226 2.448 2.108 4.76 4.099 7.139 5.882 1.866 1.397 3.746 3.032 4.171 4.834-2.284.284-4.702-.685-6.081-2.524z" fill="#3a312a"/><path d="m186.899 56.067c-.64.39-1.24.83-1.78 1.33-2.25 2.1-2.6 6.71-6.57 6.53-3.968-.184-6.378-5.825-10.608-2.604-1.34 1.021-2.292 2.476-3.595 3.543-2.247 1.84-4.861 2.407-7.689 2.593-.408.027-7.057.532-7.025.596.559 1.021.992 2.111 1.286 3.237-1.682.76-3.587.784-5.423.971-1.836.188-3.78.618-5.054 1.954-1.55 1.626-1.601 4.454-.109 6.134-1.756 1.433-4.351 2.643-3.989 5.268.361 2.605 3.171 4.106 5.742 4.648 2.572.541 5.377.609 7.515 2.137.08.057-3.026 1.43-3.364 1.513-1.181.29-2.406.353-3.609.497-2.324.278-4.639.816-6.181 2.761-.988 1.245-.821 2.57-.783 3.98-2.49.227-5.004-1.411-6.982-2.74-2.173-1.46-4.378-3.067-6.96-3.494-.935-.155-2.056-.069-2.595.711-.417.604-.332 1.414-.179 2.132.454 2.133 1.365 4.167 2.652 5.927-1.99-.132-4.614-.549-5.811 1.539-.97 1.691-.055 3.843.617 5.479 1.263 3.077 4.259 9.896 8.704 7.59 1.424-.739 2.756-1.813 4.354-1.954 1.388-.122 2.727.491 3.96 1.14s2.489 1.365 3.878 1.476c2.706.216 2.908-2.269 4.921-3.21 1.131-.529 2.528-.058 3.432.803 1.493 1.422 1.704 3.793 3.84 4.574 1.117.408 2.347.09 3.526-.061 3.059-.391 6.912.434 9.251 2.577 2.078 1.903 2.049 5.157 4.262 6.901 1.326 1.044 3.69.891 4.293-.683.501-1.308-.13-3.341 1.198-3.785 6.118-2.047-.479 12.587-1.152 13.788-.906 1.615-2.067 3.294-3.849 3.797-2.414.682-4.791-1.054-6.649-2.74-4.783-4.341-9.723-9.372-16.146-10.064-4.916-.53-10.5 1.502-14.489-1.421l-15.288 7.328c-1.169.561-2.143 1.512-2.589 2.73-1.071 2.924 1.636 4.576 2.905 6.791 1.363 2.378 1.008 5.311 1.092 8.05.083 2.739 1.01 5.909 3.584 6.849.92.336 1.923.327 2.893.454 6.996.913 11.144 8.677 11.497 15.724.352 7.047-1.86 13.99-1.975 21.044-.212 12.97 6.57 24.896 13.147 36.076.295.501.622 1.032 1.152 1.272.656.296 1.417.061 2.096-.177 2.464-.862 4.929-1.724 7.393-2.586.298-3.562-2.005-7.231-.735-10.572.585-1.539 1.848-2.714 2.67-4.141 2.574-4.464.398-10.001-.619-15.053-.173-.858-.296-1.805.144-2.561.392-.674 1.141-1.039 1.823-1.418 3.099-1.721 5.598-4.499 6.983-7.762.491-1.157.848-2.391.847-3.648-.002-1.862-.729-3.951.382-5.445 1.505-2.024 5.541-1.625 6.008-4.104.112-.596-.049-1.22.075-1.813.713-3.411 7.607-.4 8.358-5.112.227-1.425-.335-2.881-1.382-3.874-2.739-2.597-6.713-2.326-9.82-4.063-1.946-1.088-4.831-6.259-1.275-7.12 2.511-.608 2.939 3.32 5.574 2.421 1.058-.361 1.907-1.12 2.607-1.989 3.71-4.62 9.68 1.36 14.67-4.75 2.67-3.27 2.49-8.64-.2-11.9-.64-.78-1.19-1.6-1.44-2.58-.74-2.9 2.15-6.08 5.11-5.62l3.13 4.48c2.39 1.82 3.15.03 4.66.6 4.49 1.67 9.63 1.41 13.99-.56 1.899-.855 4.042-.803 5.881.041.296-.198.311-.208.607-.407.186-32.065-14.142-60.785-36.795-79.975z" fill="#d7e057"/><path d="m187.869 54.922c-.493-.417-1.199-.473-1.75-.136-.753.458-1.432.967-2.023 1.514-.955.891-1.572 2.038-2.169 3.147-1.169 2.172-1.797 3.05-3.308 2.981-1.127-.052-2.216-.807-3.37-1.606-2.017-1.398-4.779-3.31-8.216-.692-.814.62-1.469 1.341-2.102 2.038-.516.567-1.002 1.103-1.534 1.538-1.683 1.377-3.727 2.052-6.837 2.258-7.749.51-7.749.51-8.228 1.345-.26.453-.265 1.009-.014 1.467.275.503.517 1.025.721 1.56-.827.186-1.723.262-2.653.341-.349.03-.696.06-1.042.095-1.754.179-4.283.624-5.987 2.411-1.697 1.779-2.051 4.604-1.032 6.804-1.66 1.206-3.877 2.859-3.466 5.839.468 3.382 3.881 5.271 6.919 5.91.656.138 1.326.247 1.997.355.714.115 1.414.229 2.079.377-.759.184-1.565.266-2.418.352-.329.033-.658.067-.985.106-2.484.297-5.28.924-7.178 3.318-.872 1.1-1.096 2.251-1.135 3.302-1.659-.386-3.385-1.545-4.619-2.375l-.522-.353c-2.129-1.44-4.332-2.93-7.03-3.376-1.797-.296-3.282.193-4.074 1.34-.762 1.105-.6 2.41-.411 3.296.294 1.381.768 2.734 1.397 4.006-1.632.084-3.349.584-4.39 2.4-1.317 2.297-.228 4.949.53 6.794 1.408 3.431 3.431 7.518 6.599 8.68 1.363.5 2.809.386 4.184-.327.399-.207.792-.438 1.185-.67.911-.539 1.771-1.047 2.609-1.121 1.019-.084 2.147.456 3.13.973l.276.146c1.213.643 2.588 1.371 4.181 1.498 2.399.199 3.554-1.172 4.389-2.168.426-.509.794-.948 1.287-1.178.458-.219 1.217.012 1.761.531.418.398.739.979 1.079 1.595.648 1.173 1.455 2.634 3.281 3.302 1.273.463 2.516.274 3.613.107.207-.032.413-.063.618-.09 2.918-.371 6.23.53 8.048 2.195.757.693 1.191 1.737 1.651 2.842.583 1.399 1.243 2.985 2.696 4.131 1.127.888 2.763 1.213 4.164.825 1.162-.32 2.058-1.104 2.459-2.15.266-.695.307-1.418.343-2.058.016-.278.038-.674.086-.89.182-.051.303-.066.375-.07.744 1.629-2.301 9.67-3.467 11.75-.743 1.325-1.675 2.728-2.948 3.088-1.763.5-3.831-1.135-5.233-2.407l-1.253-1.146c-4.616-4.236-9.389-8.615-15.74-9.299-1.81-.196-3.659-.071-5.445.049-3.155.212-6.134.412-8.317-1.188-.446-.328-1.037-.381-1.535-.143l-15.288 7.328c-1.598.766-2.788 2.033-3.349 3.566-1.062 2.9.62 4.963 1.849 6.47.445.547.866 1.063 1.164 1.583.886 1.547.882 3.522.879 5.614-.002.583-.002 1.164.015 1.736.127 4.144 1.834 7.214 4.569 8.212.845.309 1.697.386 2.449.454.256.023.512.046.765.079 6.196.809 9.876 7.978 10.193 14.312.186 3.723-.368 7.385-.955 11.262-.477 3.149-.969 6.405-1.023 9.683-.225 13.777 7.305 26.577 13.354 36.86.336.571.843 1.433 1.828 1.879.438.197.881.27 1.301.27.77 0 1.463-.243 1.908-.398l7.393-2.585c.559-.195.95-.701.999-1.291.146-1.739-.226-3.401-.584-5.008-.419-1.878-.815-3.653-.244-5.156.277-.728.796-1.418 1.346-2.15.417-.554.849-1.128 1.222-1.775 2.388-4.141 1.225-8.982.2-13.253-.23-.958-.459-1.91-.648-2.845-.07-.347-.233-1.161-.03-1.51.147-.253.612-.508 1.06-.754l.194-.107c3.403-1.89 6.115-4.904 7.635-8.488.651-1.534.967-2.92.966-4.235 0-.608-.065-1.203-.127-1.778-.125-1.165-.233-2.171.212-2.771.399-.537 1.354-.88 2.277-1.213 1.512-.543 3.583-1.288 4.001-3.508.086-.456.071-.88.059-1.22-.008-.227-.016-.44.01-.565.094-.45.791-.612 2.421-.825 2.137-.28 5.367-.702 5.949-4.357.3-1.883-.385-3.826-1.831-5.198-1.89-1.792-4.151-2.386-6.338-2.96-1.373-.36-2.669-.701-3.782-1.323-.973-.544-2.335-2.773-2.18-3.907.023-.17.046-.33.526-.446.296-.073.471.016 1.228.818.826.875 2.206 2.338 4.478 1.565 1.21-.413 2.286-1.22 3.292-2.47 1.179-1.469 2.613-1.451 5.049-1.292 2.878.186 6.455.419 9.613-3.448 3.067-3.757 2.975-9.949-.203-13.801-.647-.788-.989-1.386-1.146-1.999-.223-.872.086-1.878.823-2.69.582-.641 1.31-1.026 2.027-1.094l2.707 3.874c.089.127.197.24.321.334 2.06 1.569 3.537 1.152 4.42.903.421-.119.513-.132.625-.091 4.813 1.791 10.328 1.572 15.129-.598 1.461-.659 3.153-.645 4.639.036.475.218 1.027.174 1.461-.117l.606-.406c.414-.276.663-.74.666-1.238.18-31.313-13.425-60.883-37.326-81.131zm28.723 80.118c-4.089 1.848-8.773 2.037-12.842.524-1.046-.395-1.916-.15-2.492.012-.586.165-.878.247-1.609-.271l-2.989-4.278c-.234-.335-.595-.56-.999-.623-1.893-.292-3.865.463-5.284 2.024-1.418 1.56-1.982 3.597-1.51 5.449.344 1.348 1.107 2.397 1.736 3.164 2.277 2.76 2.367 7.338.196 9.997-2.182 2.671-4.458 2.522-7.095 2.352-2.515-.165-5.369-.349-7.581 2.407-.638.792-1.267 1.286-1.922 1.509-.354.121-.48.114-1.327-.784-.767-.813-2.051-2.173-4.116-1.676-1.569.38-2.587 1.458-2.793 2.955-.373 2.72 1.973 5.974 3.688 6.933 1.446.808 2.991 1.214 4.484 1.606 1.904.5 3.704.973 5.035 2.235.718.681 1.075 1.658.933 2.55-.199 1.254-.938 1.536-3.375 1.854-1.867.244-4.425.579-4.969 3.187-.101.481-.084.927-.072 1.285.008.221.015.43-.009.557-.094.498-.844.801-2.068 1.241-1.28.46-2.73.982-3.669 2.246-1.147 1.542-.948 3.394-.788 4.882.056.521.109 1.012.109 1.459 0 .904-.237 1.906-.728 3.062-1.26 2.971-3.508 5.47-6.33 7.037l-.181.1c-.732.402-1.644.902-2.21 1.875-.684 1.176-.544 2.486-.318 3.611.195.97.432 1.958.671 2.953.982 4.088 1.909 7.95.119 11.054-.282.489-.641.966-1.021 1.471-.651.866-1.325 1.761-1.753 2.887-.891 2.345-.377 4.648.12 6.875.246 1.101.481 2.155.534 3.159l-6.405 2.24c-.672.234-.909.25-.981.227-.128-.068-.383-.503-.479-.667-5.859-9.96-13.151-22.356-12.94-35.291.05-3.077.527-6.232.989-9.283.583-3.853 1.185-7.837.984-11.86-.511-10.22-6.827-16.356-12.801-17.137-.292-.038-.588-.065-.883-.092-.623-.057-1.212-.11-1.69-.284-1.813-.662-2.531-3.267-2.599-5.485-.017-.541-.015-1.088-.014-1.639.005-2.394.01-4.869-1.276-7.112-.42-.732-.939-1.37-1.441-1.986-1.301-1.596-1.789-2.364-1.357-3.543.287-.783.953-1.474 1.829-1.893l14.526-6.962c2.901 1.699 6.259 1.474 9.519 1.254 1.735-.117 3.373-.225 4.923-.06 5.371.579 9.774 4.62 14.033 8.527l1.266 1.157c1.93 1.751 4.867 3.976 8.065 3.072 2.339-.662 3.767-2.756 4.749-4.507.063-.113 5.95-11.791 3.118-15.212-.48-.581-1.607-1.45-3.751-.732-1.809.605-1.912 2.429-1.973 3.518-.025.44-.051.896-.149 1.153-.058.153-.211.264-.454.331-.49.135-1.126.013-1.51-.29-.84-.662-1.277-1.712-1.783-2.927-.539-1.294-1.149-2.761-2.395-3.901-2.843-2.604-7.3-3.362-10.455-2.958-.228.029-.459.064-.691.1-.813.124-1.581.241-2.13.041-.736-.269-1.102-.879-1.684-1.935-.415-.75-.884-1.601-1.636-2.316-1.458-1.39-3.508-1.822-5.102-1.077-1.095.512-1.771 1.32-2.315 1.969-.747.893-1.02 1.171-1.851 1.105-.975-.078-1.966-.603-3.015-1.158l-.284-.15c-1.462-.769-3.059-1.459-4.79-1.306-1.516.133-2.768.873-3.874 1.526-.345.204-.689.408-1.04.59-.633.329-1.196.384-1.769.174-2.334-.856-4.232-5.482-4.894-7.094-.558-1.358-1.252-3.048-.665-4.071.576-1.004 1.895-.981 3.846-.83l.564.042c.588.043 1.133-.263 1.414-.774s.24-1.138-.104-1.608c-1.158-1.583-1.986-3.434-2.395-5.353-.168-.791-.059-.961-.054-.969.036-.05.404-.2 1.115-.083 2.05.339 3.89 1.584 5.838 2.901l.53.358c1.938 1.302 4.864 3.267 7.955 2.988.787-.072 1.384-.743 1.363-1.533l-.015-.45c-.044-1.232-.043-1.906.474-2.559 1.151-1.451 2.904-1.931 5.184-2.204.31-.037.62-.068.931-.1.927-.094 1.887-.191 2.858-.43.042-.01 4.201-1.226 4.48-2.684.11-.575-.126-1.166-.602-1.506-1.898-1.357-4.096-1.712-6.221-2.055-.624-.101-1.247-.201-1.857-.33-1.947-.41-4.31-1.542-4.565-3.385-.154-1.115.628-1.817 2.322-3.048.39-.283.775-.564 1.129-.853.317-.258.514-.635.547-1.042s-.102-.811-.373-1.116c-.969-1.091-.935-3.046.073-4.103.786-.825 2.057-1.286 4.12-1.497.329-.034.66-.062.991-.09 1.617-.138 3.289-.28 4.897-1.007.666-.301 1.018-1.038.833-1.746-.139-.533-.306-1.059-.5-1.574 1.873-.157 4.456-.355 4.887-.384 2.512-.166 5.753-.648 8.54-2.93.703-.575 1.288-1.219 1.853-1.841.568-.625 1.104-1.214 1.7-1.668 1.634-1.245 2.619-.664 4.69.772 1.384.958 2.953 2.045 4.941 2.137 3.572.146 5.014-2.566 6.086-4.556.505-.937.981-1.822 1.571-2.373.202-.187.421-.37.654-.547 22.313 19.327 35.149 47.108 35.403 76.6-1.864-.464-3.839-.301-5.603.494z" fill="#3a312a"/><path d="m227.079 26.24c-.974 11.564-13.024 13.39-13.024 13.39 10.347.487 12.925 14.059 12.925 14.059.221-9.677 13.321-14.202 13.321-14.202-9.814-.587-13.222-13.247-13.222-13.247z" fill="#d7e057"/><path d="m240.39 37.989c-8.605-.514-11.832-12.024-11.864-12.14-.191-.703-.858-1.169-1.583-1.102-.725.066-1.298.642-1.359 1.367-.86 10.215-11.313 11.963-11.754 12.032-.763.115-1.313.79-1.273 1.561.04.77.657 1.384 1.428 1.421 9.028.425 11.498 12.718 11.522 12.842.137.711.759 1.217 1.472 1.217.042 0 .084-.001.126-.005.764-.064 1.357-.693 1.375-1.459.195-8.508 12.192-12.777 12.313-12.819.675-.235 1.092-.915.994-1.623-.099-.708-.683-1.249-1.397-1.292zm-13.566 10.346c-1.356-3.131-3.709-6.908-7.587-8.877 2.931-1.404 6.409-3.913 8.202-8.272 1.551 3.071 4.2 6.88 8.334 8.722-3.007 1.64-6.922 4.406-8.949 8.427z" fill="#3a312a"/><path d="m205.38 43.221c-.689 8.179-9.212 9.47-9.212 9.47 7.318.344 9.142 9.944 9.142 9.944.156-6.844 9.422-10.045 9.422-10.045-6.941-.415-9.352-9.369-9.352-9.369z" fill="#d7e057"/><path d="m214.821 51.093c-5.766-.345-7.972-8.185-7.994-8.264-.191-.702-.855-1.167-1.582-1.102-.726.065-1.299.643-1.36 1.368-.579 6.87-7.647 8.066-7.942 8.113-.763.115-1.313.79-1.273 1.561.04.77.657 1.384 1.427 1.421 6.036.284 7.724 8.644 7.739 8.726.135.713.759 1.22 1.472 1.22.042 0 .083-.001.125-.005.765-.063 1.358-.694 1.376-1.461.13-5.709 8.332-8.634 8.413-8.662.677-.234 1.094-.913.996-1.622-.097-.709-.682-1.25-1.397-1.293zm-9.584 6.795c-.924-1.886-2.34-3.947-4.447-5.28 1.856-1.042 3.697-2.63 4.871-4.917 1.057 1.874 2.654 3.955 4.941 5.224-1.85 1.101-3.989 2.741-5.365 4.973z" fill="#3a312a"/><path d="m205.38 16.563c-.689 8.179-9.212 9.471-9.212 9.471 7.318.344 9.142 9.944 9.142 9.944.156-6.845 9.422-10.045 9.422-10.045-6.941-.416-9.352-9.37-9.352-9.37z" fill="#d7e057"/><path d="m214.822 24.436c-5.766-.345-7.973-8.186-7.994-8.265-.191-.702-.855-1.168-1.582-1.102-.726.065-1.299.643-1.36 1.368-.579 6.871-7.647 8.067-7.942 8.114-.763.115-1.313.79-1.273 1.561.04.77.657 1.384 1.428 1.421 6.035.284 7.723 8.644 7.739 8.726.135.713.759 1.22 1.472 1.22.042 0 .083-.001.125-.005.765-.063 1.358-.694 1.376-1.461.13-5.709 8.331-8.634 8.413-8.662.676-.234 1.094-.913.996-1.622-.099-.709-.684-1.25-1.398-1.293zm-9.585 6.794c-.924-1.885-2.34-3.947-4.447-5.28 1.856-1.041 3.697-2.63 4.871-4.916 1.057 1.874 2.654 3.954 4.941 5.223-1.85 1.102-3.989 2.741-5.365 4.973z" fill="#3a312a"/><path d="m227.022 178.171c-1.357-1.099-2.185-2.721-2.185-4.468v-80.812c0-10.564-8.282-19.493-18.842-19.783-10.956-.301-19.932 8.491-19.932 19.38v81.187c0 1.764-.836 3.402-2.206 4.514-7.897 6.406-12.892 16.249-12.701 27.253.313 18.064 14.904 32.981 32.958 33.667 19.552.743 35.637-14.888 35.637-34.275-.001-10.77-4.966-20.376-12.729-26.663z" fill="#fce8cb"/><path d="m227.966 177.005c-1.035-.839-1.629-2.042-1.629-3.302v-80.812c0-11.428-9.107-20.976-20.301-21.283-5.694-.153-11.075 1.942-15.15 5.908-4.077 3.967-6.323 9.284-6.323 14.972v37.923c0 .829.671 1.5 1.5 1.5s1.5-.671 1.5-1.5v-37.924c0-4.871 1.923-9.424 5.415-12.821 3.491-3.396 8.104-5.209 12.977-5.059 9.585.263 17.383 8.465 17.383 18.284v80.813c0 2.169.998 4.222 2.741 5.633 7.736 6.266 12.172 15.559 12.172 25.497 0 8.998-3.571 17.39-10.055 23.632-6.481 6.239-15.018 9.492-24.025 9.144-17.371-.66-31.214-14.801-31.516-32.194-.176-10.157 4.252-19.657 12.146-26.063 1.755-1.423 2.761-3.493 2.761-5.679v-26.62c0-.829-.671-1.5-1.5-1.5s-1.5.671-1.5 1.5v26.62c0 1.277-.602 2.498-1.651 3.349-8.616 6.991-13.448 17.358-13.256 28.444.329 18.984 15.44 34.419 34.401 35.14.471.018.94.027 1.409.027 9.313 0 18.077-3.524 24.812-10.007 7.076-6.813 10.974-15.973 10.974-25.793-.001-10.848-4.843-20.991-13.285-27.829z" fill="#3a312a"/><path d="m215.102 186.88c-2.687-1.447-4.432-4.177-4.432-7.229v-86.075c0-2.858-2.202-5.35-5.059-5.436-2.956-.089-5.38 2.281-5.38 5.217v86.294c0 3.022-1.692 5.768-4.359 7.19-6.941 3.702-11.488 11.3-10.718 19.876.888 9.893 9 17.796 18.911 18.451 11.883.786 21.766-8.621 21.766-20.335 0-7.764-4.342-14.512-10.729-17.953z" fill="#f16c7a"/><path d="m215.813 185.56c-2.248-1.21-3.644-3.475-3.644-5.908v-86.076c0-3.716-2.922-6.828-6.514-6.935-1.839-.054-3.569.618-4.885 1.894-1.316 1.277-2.041 2.989-2.041 4.823v8.58c0 .829.671 1.5 1.5 1.5s1.5-.671 1.5-1.5v-8.58c0-1.015.401-1.963 1.129-2.67.729-.707 1.698-1.087 2.706-1.048 1.987.059 3.604 1.825 3.604 3.936v86.076c0 3.539 2 6.815 5.221 8.55 6.132 3.302 9.941 9.675 9.941 16.632 0 5.28-2.124 10.177-5.981 13.787-3.854 3.607-8.891 5.406-14.187 5.051-9.166-.605-16.696-7.952-17.516-17.089-.683-7.606 3.214-14.836 9.929-18.418 3.179-1.695 5.153-4.957 5.153-8.514v-63.588c0-.829-.671-1.5-1.5-1.5s-1.5.671-1.5 1.5v63.588c0 2.446-1.366 4.694-3.565 5.867-7.78 4.15-12.297 12.524-11.506 21.333.951 10.594 9.681 19.112 20.306 19.813.504.033 1.005.05 1.504.05 5.577 0 10.832-2.067 14.931-5.904 4.404-4.123 6.931-9.946 6.931-15.977.002-8.062-4.412-15.447-11.516-19.273z" fill="#3a312a"/><path d="m226.08 179.34c-1.74-1.41-2.74-3.47-2.74-5.64v-80.81c0-9.82-7.8-18.02-17.39-18.28-3.03-.09-5.96.57-8.58 1.91 4.09 2.09 7.31 5.75 8.89 10.17 3.31.41 5.91 3.38 5.91 6.89v86.07c0 .61.09 1.21.25 1.78v.01c.51 1.72 1.71 3.21 3.39 4.12.1.05.2.11.3.17 6.93 3.87 11.22 11.15 11.22 19.1 0 6.03-2.53 11.86-6.93 15.98-1.32 1.24-2.76 2.29-4.3 3.15-1.14 1.6-2.45 3.11-3.9 4.51-4.19 4.03-9.23 6.81-14.71 8.19 2.15.54 4.38.86 6.68.95 9.01.35 17.54-2.91 24.03-9.14 6.48-6.25 10.05-14.64 10.05-23.64 0-9.93-4.44-19.23-12.17-25.49z" fill="#decaad"/></svg>