<?xml version="1.0" encoding="UTF-8" standalone="no"?>
<svg
   xmlns:dc="http://purl.org/dc/elements/1.1/"
   xmlns:cc="http://creativecommons.org/ns#"
   xmlns:rdf="http://www.w3.org/1999/02/22-rdf-syntax-ns#"
   xmlns:svg="http://www.w3.org/2000/svg"
   xmlns="http://www.w3.org/2000/svg"
   xmlns:sodipodi="http://sodipodi.sourceforge.net/DTD/sodipodi-0.dtd"
   xmlns:inkscape="http://www.inkscape.org/namespaces/inkscape"
   width="500"
   height="500"
   viewBox="0 0 132.29167 132.29167"
   version="1.1"
   id="svg8"
   inkscape:export-filename="/home/polip/Downloads/intro.png"
   inkscape:export-xdpi="99.981598"
   inkscape:export-ydpi="99.981598"
   inkscape:version="1.0.1 (3bc2e813f5, 2020-09-07)"
   sodipodi:docname="intro.svg">
  <defs
     id="defs2" />
  <sodipodi:namedview
     id="base"
     pagecolor="#ffffff"
     bordercolor="#666666"
     borderopacity="1.0"
     inkscape:pageopacity="0.0"
     inkscape:pageshadow="2"
     inkscape:zoom="0.7"
     inkscape:cx="197.18011"
     inkscape:cy="438.83782"
     inkscape:document-units="mm"
     inkscape:current-layer="layer1"
     inkscape:document-rotation="0"
     showgrid="false"
     inkscape:window-width="1868"
     inkscape:window-height="1043"
     inkscape:window-x="0"
     inkscape:window-y="0"
     inkscape:window-maximized="1"
     units="px"
     width="800px" />
  <metadata
     id="metadata5">
    <rdf:RDF>
      <cc:Work
         rdf:about="">
        <dc:format>image/svg+xml</dc:format>
        <dc:type
           rdf:resource="http://purl.org/dc/dcmitype/StillImage" />
        <dc:title></dc:title>
      </cc:Work>
    </rdf:RDF>
  </metadata>
  <g
     inkscape:label="Layer 1"
     inkscape:groupmode="layer"
     id="layer1">
    <circle
       style="opacity:0.5;fill:none;stroke:#ffe718;stroke-width:5.58911;stroke-linecap:round;stroke-linejoin:round;stroke-miterlimit:4;stroke-dasharray:none;stroke-opacity:1"
       id="path869"
       cx="61.171318"
       cy="68.191338"
       r="40.449966"
       inkscape:export-xdpi="99.981598"
       inkscape:export-ydpi="99.981598" />
    <g
       id="g877"
       transform="matrix(0.89964541,0,0,0.89964541,-10.289671,-50.2696)"
       inkscape:export-xdpi="99.981598"
       inkscape:export-ydpi="99.981598">
      <path
         style="fill:#cff09e;stroke-width:0.111689"
         d="m 123.76648,129.6224 -2.47425,6.59144 3.34431,3.80491 0.89005,0.82795 c 1.42415,1.32463 2.34737,3.10004 2.61375,5.02668 v 0 c 0.23321,1.68528 -0.0481,3.40183 -0.80718,4.92437 l -0.42654,0.85587 1.60642,2.85991 1.31436,5.47511 c 0.2217,0.92378 -0.80941,1.63647 -1.59526,1.10259 l -7.18652,-4.88248 -8.5279,-1.02698 c -0.37059,-0.0447 0.25308,-1.69164 0.77009,-3.02041 0.38578,-0.99158 0.4796,-2.07205 0.27096,-3.11523 l -0.73123,-3.65569 c 0.0352,-0.24885 0.15916,-0.47658 0.34914,-0.6411 l 5.31082,-4.59533 -1.90944,-4.25011 c 0,0 -3.5354,-0.88848 -4.07665,-0.81365 -0.27911,0.0387 -1.76592,-0.77211 -3.13657,-1.56387 -1.54566,-0.89307 -2.59352,-2.44834 -2.83812,-4.21671 v 0 l -0.80472,-1.889 c 4.15706,-5.16193 10.21318,-8.80947 17.29583,-9.78921 0.17502,-0.0242 0.35026,-0.0468 0.52438,-0.0659 l 2.13896,2.98434 c 0.83152,1.16 1.20456,2.58683 1.04764,4.00539 l -0.33607,3.03593 c -0.0829,0.74966 -2.26472,1.36942 -2.62626,2.03118 z"
         id="path2" />
      <path
         style="fill:#00a92e;fill-opacity:1;stroke-width:0.111689"
         d="m 155.02691,140.41245 c -1.25024,-9.03754 -6.72033,-16.89487 -14.71336,-21.2274 -0.0567,-0.0356 -0.11482,-0.0686 -0.17479,-0.0965 -0.26069,-0.13894 -0.52405,-0.27419 -0.78998,-0.40565 -5.13613,-2.53612 -10.86131,-3.46035 -16.5569,-2.67238 -0.20874,0.0289 -0.4166,0.0613 -0.624,0.0947 -0.018,0.003 -0.0362,0.005 -0.0542,0.008 -0.18786,0.0304 -0.37449,0.064 -0.56123,0.0979 -0.0433,0.008 -0.087,0.0152 -0.13045,0.0232 -0.19557,0.0365 -0.39024,0.076 -0.58447,0.11638 -0.0288,0.006 -0.0576,0.0116 -0.0863,0.0179 -0.20941,0.0444 -0.41783,0.0911 -0.62568,0.13995 -0.007,0.002 -0.0141,0.003 -0.0211,0.005 -1.95523,0.46061 -3.84143,1.12158 -5.64577,1.97835 -0.0374,0.0179 -0.0749,0.0356 -0.11224,0.0535 -0.15425,0.0742 -0.30827,0.14933 -0.46139,0.22628 -0.0809,0.0405 -0.16095,0.082 -0.24136,0.12319 -0.11638,0.0599 -0.23265,0.11962 -0.34814,0.18116 -0.14363,0.0763 -0.28614,0.15458 -0.42855,0.23332 -0.0564,0.0313 -0.11336,0.0616 -0.16966,0.0934 -3.13756,1.76346 -5.93895,4.12267 -8.24957,6.99207 -0.37896,0.47055 -0.46764,1.11164 -0.23086,1.66741 l 0.7243,1.70047 c 0.37047,2.1862 1.67467,4.06525 3.60532,5.1808 2.88136,1.6645 3.40853,1.78457 3.9338,1.78457 0.0399,0 0.0796,-0.001 0.11929,-0.004 0.37695,0.0295 1.61536,0.29318 2.81322,0.57933 l 1.08294,2.41037 -4.39016,3.79854 c -0.4892,0.4233 -0.8083,1.00922 -0.89854,1.64976 -0.0258,0.18261 -0.0204,0.36835 0.0157,0.54929 l 0.73123,3.65569 c 0.14776,0.7386 0.0815,1.49976 -0.19144,2.20117 -0.96142,2.47123 -1.27325,3.49106 -0.72709,4.40244 0.27944,0.46631 0.7482,0.77099 1.28621,0.83577 l 8.13309,0.97941 6.85782,4.65899 c 0.44875,0.3048 0.96778,0.46597 1.50088,0.46597 0.81387,0 1.60262,-0.38455 2.11036,-1.02832 0.50706,-0.643 0.68699,-1.4724 0.49433,-2.27578 l -1.31435,-5.47509 c -0.0352,-0.14665 -0.0907,-0.28782 -0.16442,-0.41939 l -1.182,-2.10444 0.0401,-0.0805 c 0.90971,-1.82544 1.24288,-3.85829 0.96343,-5.8783 -0.31708,-2.29275 -1.42526,-4.42378 -3.12015,-6.00049 l -0.82984,-0.77178 -2.64223,-3.00633 2.00694,-5.34633 c 0.1625,-0.10376 0.41917,-0.24393 0.6049,-0.34524 0.93507,-0.51064 2.09888,-1.14626 2.23848,-2.40712 l 0.33607,-3.03593 c 0.20172,-1.82299 -0.27554,-3.64788 -1.34395,-5.13859 l -0.41739,-0.58235 c 3.52537,-0.021 7.00279,0.69225 10.24457,2.11148 -0.1739,0.22238 -0.3516,0.45648 -0.5255,0.69672 -0.74396,1.0272 -2.48586,3.43265 -0.9756,5.0317 0.16442,0.17413 0.33675,0.34055 0.50327,0.50149 0.16743,0.16161 0.41113,0.39705 0.57464,0.58625 -1.31614,1.16403 -2.64646,3.20247 -2.17614,5.23889 0.25968,1.12371 1.16,2.6171 3.97513,3.34956 1.62239,0.42218 3.35558,0.66265 4.39295,-0.43771 2.4567,1.05747 3.69088,1.68282 3.70272,1.68885 0.23801,0.12129 0.49165,0.1787 0.74171,0.1787 0.59577,0 1.17007,-0.32647 1.45901,-0.89351 0.41033,-0.80494 0.0904,-1.79027 -0.7147,-2.20061 -0.0555,-0.0282 -1.3883,-0.70499 -4.07978,-1.85851 -0.77288,-0.33138 -1.60017,-0.59307 -2.41494,-0.26615 -0.52013,0.20863 -0.81857,0.5743 -0.99102,0.86793 -0.23745,-0.0201 -0.63729,-0.0806 -1.27158,-0.24571 -1.09824,-0.28582 -1.55415,-0.67382 -1.611,-0.91932 -0.10901,-0.47188 0.45189,-1.44849 1.20032,-2.08992 0.95662,-0.81991 1.1781,-1.68427 1.19541,-2.26494 0.0409,-1.37679 -0.94176,-2.34614 -1.67724,-3.05682 0.27051,-0.54973 0.9096,-1.46391 1.65334,-2.37261 6.50934,3.93715 10.9347,10.59717 11.98657,18.20051 0.26493,1.91513 0.3115,3.82356 0.14542,5.71111 -1.02374,-0.97504 -2.1413,-2.04648 -2.44956,-2.35362 -1.18134,-1.17687 -3.33045,-1.38796 -4.30115,-1.33591 -2.43627,0.13201 -6.74467,0.7291 -8.226,3.24389 -1.82466,3.09267 -1.4466,6.45384 1.01101,8.99064 0.0813,0.0841 0.15625,0.16328 0.22516,0.23778 -0.9823,0.22182 -2.1642,0.81812 -2.72443,2.53423 -0.28056,0.859 0.18853,1.78278 1.04753,2.06323 0.16853,0.0552 0.33965,0.0813 0.50808,0.0813 0.68878,0 1.32977,-0.43848 1.55504,-1.12883 0.1118,-0.34178 0.12342,-0.37763 0.94255,-0.42364 1.64763,-0.091 2.29162,-0.87129 2.54148,-1.5097 0.57219,-1.46089 -0.56058,-2.9076 -1.74447,-4.13082 -1.80992,-1.86834 -1.29459,-3.77822 -0.54292,-5.05214 0.40398,-0.68555 2.45169,-1.46849 5.58412,-1.63826 0.65739,-0.0362 1.59671,0.19311 1.81471,0.38645 0.30056,0.29954 2.99551,2.88716 4.10513,3.92106 -0.0872,0.34836 -0.17982,0.69571 -0.28223,1.04161 -2.8177,9.51826 -10.98841,16.54696 -20.81638,17.90666 -6.69833,0.92691 -13.35589,-0.81052 -18.74746,-4.89164 -5.39157,-4.08112 -8.87079,-10.01762 -9.79736,-16.71561 -0.41459,-2.99628 -0.2971,-5.99915 0.34902,-8.92485 0.1949,-0.88234 -0.36243,-1.75564 -1.24477,-1.95054 -0.882678,-0.19501 -1.75564,0.36243 -1.950538,1.24478 -0.730111,3.3061 -0.863133,6.69698 -0.395267,10.07916 1.046303,7.56391 4.975635,14.2676 11.064025,18.87623 5.01854,3.79865 11.00752,5.79911 17.19387,5.79889 1.31894,0 2.64781,-0.0911 3.97691,-0.27487 11.09765,-1.53527 20.3244,-9.47179 23.50574,-20.21951 1.15531,-3.90733 1.4562,-7.9498 0.89374,-12.01585 z m -29.92441,-16.03698 -0.28637,2.58728 c -0.18127,0.11292 -0.43179,0.24962 -0.60412,0.34378 -0.76585,0.41816 -1.48926,0.81331 -1.88162,1.53092 -0.037,0.0676 -0.0689,0.1376 -0.0961,0.20964 l -2.47425,6.59144 c -0.21221,0.56526 -0.0957,1.20155 0.3029,1.65512 l 3.3442,3.80491 c 0.0362,0.0412 0.0745,0.0806 0.1147,0.11795 l 0.88994,0.82772 c 1.14481,1.06496 1.89335,2.50429 2.10757,4.05275 0.18887,1.36439 -0.0363,2.73728 -0.6507,3.97032 l -0.42654,0.85588 c -0.2418,0.48517 -0.22773,1.05847 0.0377,1.53114 l 1.49496,2.66178 0.90155,3.7552 -5.9117,-4.01611 c -0.21612,-0.14687 -0.46429,-0.23991 -0.72385,-0.27107 l -6.81192,-0.82036 c 0.14933,-0.40833 0.30301,-0.80281 0.3832,-1.00922 0.4997,-1.28442 0.62088,-2.67774 0.3506,-4.02952 l -0.60212,-3.00991 4.99719,-4.3237 c 0.54661,-0.47289 0.71816,-1.24835 0.42196,-1.90776 l -1.90943,-4.2501 c -0.20518,-0.4567 -0.60804,-0.79423 -1.09366,-0.9163 -1.23673,-0.31083 -3.39066,-0.82382 -4.28875,-0.86492 -0.23611,-0.10019 -0.8943,-0.41213 -2.50485,-1.34261 -1.11734,-0.64535 -1.8594,-1.74761 -2.03587,-3.0241 -0.02,-0.14352 -0.0588,-0.28369 -0.11549,-0.41705 l -0.41179,-0.96667 c 1.63926,-1.88453 3.52825,-3.49665 5.60344,-4.8033 0.14575,-0.0919 0.29251,-0.18205 0.43983,-0.27073 0.0559,-0.0337 0.11202,-0.0672 0.16831,-0.10041 0.11426,-0.0676 0.22908,-0.13369 0.34412,-0.19947 0.0781,-0.0445 0.15591,-0.0894 0.23443,-0.13303 0.0735,-0.0409 0.14754,-0.0803 0.22137,-0.12062 2.17973,-1.18245 4.53592,-2.04402 7.00592,-2.54718 0.0229,-0.005 0.0457,-0.01 0.0683,-0.0141 0.14464,-0.0289 0.28995,-0.0563 0.43537,-0.083 0.0641,-0.0117 0.12822,-0.0232 0.19255,-0.0344 0.12744,-0.0222 0.2551,-0.0439 0.38298,-0.0643 0.0232,-0.004 0.0467,-0.007 0.0699,-0.0106 l 1.56432,2.18263 c 0.59776,0.83319 0.86458,1.85325 0.75166,2.87208 z"
         id="path4" />
    </g>
    <path
       style="opacity:0.5;fill:#004eff;fill-opacity:1;stroke:#ffffff;stroke-width:30.5432;stroke-linecap:round;stroke-linejoin:round;stroke-miterlimit:4;stroke-dasharray:none;stroke-opacity:1"
       d=""
       id="path879"
       transform="scale(0.26458333)" />
    <path
       style="opacity:1;fill:none;fill-opacity:1;stroke:none;stroke-width:30.8524;stroke-linecap:round;stroke-linejoin:round;stroke-miterlimit:4;stroke-dasharray:none;stroke-opacity:1"
       d=""
       id="path911"
       transform="scale(0.26458333)" />
    <g
       id="g947"
       transform="matrix(0.69705115,0,0,0.69705115,-81.827068,-90.781732)"
       inkscape:export-xdpi="99.981598"
       inkscape:export-ydpi="99.981598">
      <path
         style="opacity:1;fill:#f85631;fill-opacity:1;stroke:none;stroke-width:8.16303;stroke-linecap:round;stroke-linejoin:round;stroke-miterlimit:4;stroke-dasharray:none;stroke-opacity:1"
         d="m 148.85987,298.2301 c -1.24739,-0.76062 -1.5327,-1.94125 -1.35691,-5.61499 0.38595,-8.06585 4.66159,-13.89872 12.08952,-16.49269 2.02635,-0.70763 2.38167,-0.74623 6.94644,-0.75467 5.28645,-0.01 6.48591,0.21288 9.59089,1.78027 3.64956,1.84229 6.18687,4.42547 7.95599,8.09982 1.29594,2.69156 1.81988,5.14758 1.82452,8.55261 0.004,2.97674 -0.44884,4.18951 -1.74913,4.68389 -0.41914,0.15936 -7.24663,0.26022 -17.57285,0.25961 -16.17804,0 -16.92273,-0.0225 -17.72847,-0.51385 z"
         id="path929" />
      <path
         style="opacity:1;fill:#f85631;fill-opacity:1;stroke:none;stroke-width:8.16303;stroke-linecap:round;stroke-linejoin:round;stroke-miterlimit:4;stroke-dasharray:none;stroke-opacity:1"
         d="m 124.95535,284.50434 c -0.81544,-0.62606 -1.04592,-1.50612 -1.04592,-3.99362 0,-4.57383 1.46496,-8.123 4.6638,-11.29906 3.25861,-3.2354 6.3943,-4.40994 11.77328,-4.40994 3.68265,0 5.55761,0.38531 8.15172,1.67522 2.23595,1.11181 5.19636,4.0244 6.36833,6.26548 l 0.86804,1.65989 -1.14595,0.57764 c -3.29146,1.6592 -6.58388,4.76387 -8.55044,8.06291 l -1.07541,1.80406 -9.79169,-0.008 c -7.27558,-0.006 -9.90067,-0.0922 -10.21576,-0.33409 z"
         id="path931" />
      <path
         style="opacity:1;fill:#f85631;fill-opacity:1;stroke:none;stroke-width:8.16303;stroke-linecap:round;stroke-linejoin:round;stroke-miterlimit:4;stroke-dasharray:none;stroke-opacity:1"
         d="m 138.35409,259.71231 c -3.1198,-0.64667 -5.93467,-2.89784 -7.33723,-5.86788 -0.72256,-1.53008 -0.81876,-2.00981 -0.80408,-4.00981 0.0305,-4.15218 2.0101,-7.34465 5.67227,-9.14753 1.64964,-0.81212 1.97021,-0.87508 4.45584,-0.87508 2.34651,0 2.86764,0.0887 4.20658,0.7163 0.84054,0.39397 2.11277,1.26304 2.82716,1.93127 6.4208,6.0059 2.60853,16.60117 -6.24748,17.36333 -0.87035,0.0749 -2.11822,0.0251 -2.77306,-0.1106 z"
         id="path933" />
      <path
         style="opacity:1;fill:#f85631;fill-opacity:1;stroke:none;stroke-width:8.16303;stroke-linecap:round;stroke-linejoin:round;stroke-miterlimit:4;stroke-dasharray:none;stroke-opacity:1"
         d="m 164.06698,269.47452 c -4.69665,-1.02026 -8.30277,-4.83125 -9.21546,-9.73901 -0.61152,-3.28826 0.73467,-7.34169 3.28535,-9.89238 5.75957,-5.75957 15.60209,-4.07129 19.22982,3.29846 1.63152,3.31446 1.39628,7.80768 -0.57061,10.89884 -1.80074,2.83003 -5.13739,5.04164 -8.41646,5.57863 -1.93994,0.31769 -2.22952,0.30801 -4.31264,-0.14454 z"
         id="path935" />
      <path
         style="opacity:1;fill:#f85631;fill-opacity:1;stroke:none;stroke-width:8.16303;stroke-linecap:round;stroke-linejoin:round;stroke-miterlimit:4;stroke-dasharray:none;stroke-opacity:1"
         d="m 190.59318,259.62043 c -3.08406,-0.74999 -5.70549,-2.88368 -7.03977,-5.72995 -0.62136,-1.32548 -0.71105,-1.85391 -0.71105,-4.18949 0,-2.3424 0.0888,-2.86215 0.71847,-4.2057 0.91664,-1.95585 2.86151,-3.90073 4.90002,-4.90002 1.45852,-0.71498 1.8424,-0.78326 4.40412,-0.78326 2.56171,0 2.9456,0.0683 4.40412,0.78326 2.0385,0.99929 3.98338,2.94417 4.90002,4.90002 0.62968,1.34355 0.71846,1.8633 0.71846,4.2057 0,2.33558 -0.0897,2.86401 -0.71104,4.18949 -1.37419,2.9314 -4.17503,5.13205 -7.38702,5.80406 -1.72259,0.3604 -2.46335,0.34732 -4.19633,-0.0741 z"
         id="path937" />
      <path
         style="opacity:1;fill:#f85631;fill-opacity:1;stroke:none;stroke-width:8.16303;stroke-linecap:round;stroke-linejoin:round;stroke-miterlimit:4;stroke-dasharray:none;stroke-opacity:1"
         d="m 186.55254,283.04323 c -1.37345,-2.38776 -5.07656,-6.12061 -7.36885,-7.42799 l -1.78779,-1.01968 0.38486,-0.9211 c 0.65667,-1.57162 2.71158,-4.22129 4.18668,-5.39842 1.7549,-1.40044 4.01331,-2.55696 6.00735,-3.07634 2.04543,-0.53277 7.73646,-0.53236 9.783,8e-4 5.24515,1.36619 9.49105,5.5608 10.97059,10.83804 0.59556,2.12426 0.83467,5.87547 0.44899,7.04408 -0.59427,1.80065 -0.35747,1.76441 -11.52579,1.76441 h -10.06155 z"
         id="path939" />
    </g>
    <g
       id="g961"
       transform="matrix(0.69863887,0,0,0.69863887,2.4935518,-46.244322)"
       style="stroke:#49abed;stroke-width:1;stroke-miterlimit:4;stroke-dasharray:none;stroke-opacity:1"
       inkscape:export-xdpi="99.981598"
       inkscape:export-ydpi="99.981598">
      <path
         style="opacity:1;fill:#49abed;fill-opacity:1;stroke:#49abed;stroke-width:1;stroke-linecap:round;stroke-linejoin:round;stroke-miterlimit:4;stroke-dasharray:none;stroke-opacity:1"
         d="m 36.011139,156.97973 v -1.46998 h 9.6217 9.62171 v -5.7463 -5.74629 l -0.86863,-0.0317 c -0.47774,-0.0174 -6.82205,-0.10764 -14.09847,-0.20046 -11.95257,-0.15245 -13.31335,-0.21437 -14.09486,-0.64145 -1.43513,-0.78429 -2.68247,-2.02891 -3.54613,-3.53844 l -0.81819,-1.43003 0.0756,-22.26911 0.0756,-22.269109 0.72478,-1.23287 c 0.83523,-1.42077 2.17601,-2.67443 3.68195,-3.4427 1.03323,-0.52712 1.54843,-0.53618 30.47194,-0.53618 29.09282,0 29.43288,0.006 30.49047,0.54563 1.48936,0.75981 2.9615,2.30806 3.80601,4.00277 l 0.71583,1.43648 v 21.604939 c 0,18.36653 -0.0587,21.74535 -0.3914,22.54169 -0.65893,1.57705 -1.94404,3.14261 -3.3854,4.1242 l -1.37359,0.93544 -13.39416,0.16955 c -7.36678,0.0933 -13.78504,0.18345 -14.26278,0.20045 l -0.86863,0.0309 v 5.74629 5.7463 h 9.6217 9.62171 v 1.46998 1.46998 h -20.71339 -20.71339 z m 50.14018,-16.49024 c 1.34838,-0.73859 2.45683,-2.19799 2.64079,-3.47688 0.0908,-0.63094 0.12895,-10.47855 0.0849,-21.88357 l -0.0801,-20.736389 -0.79945,-1.15346 c -1.49039,-2.15034 0.77275,-1.99853 -31.06504,-2.08379 -27.58962,-0.0739 -28.41845,-0.0615 -29.39965,0.43929 -1.13636,0.57997 -1.59637,1.05726 -2.43373,2.52516 l -0.58045,1.01754 v 20.880999 c 0,20.67366 0.006,20.89252 0.5619,22.04172 0.60266,1.24493 1.87828,2.37766 3.09568,2.74893 0.4138,0.12619 13.44099,0.20808 28.9493,0.18198 25.97344,-0.0437 28.26231,-0.0833 29.02589,-0.50153 z"
         id="path955" />
      <path
         style="opacity:1;fill:#49abed;fill-opacity:1;stroke:#49abed;stroke-width:1;stroke-linecap:round;stroke-linejoin:round;stroke-miterlimit:4;stroke-dasharray:none;stroke-opacity:1"
         d="m 59.591079,134.76479 c -3.24464,-1.68143 -5.03949,-5.72584 -3.88667,-8.75801 0.28511,-0.74989 0.19501,-1.04823 -0.70229,-2.32523 -1.49407,-2.12634 -6.68576,-8.00008 -7.60137,-8.60002 -0.61563,-0.40338 -1.05967,-0.45379 -2.08198,-0.23634 -1.23228,0.26209 -1.48158,0.53038 -4.82249,5.18984 l -3.52305,4.91347 0.41574,1.62454 c 0.93953,3.67118 -1.34265,6.80806 -4.95309,6.80806 -2.89158,0 -4.86964,-1.91277 -5.07949,-4.91183 -0.10511,-1.50172 -0.006,-1.97468 0.60403,-2.86268 1.19618,-1.74328 2.20213,-2.2987 4.52747,-2.49979 l 2.10454,-0.18201 3.4832,-4.93324 3.4832,-4.93325 -0.60245,-1.15326 c -0.44224,-0.8466 -0.5691,-1.59246 -0.47705,-2.80489 0.14008,-1.84491 0.80059,-2.94652 2.44156,-4.07207 0.89235,-0.61207 1.36766,-0.71094 2.9498,-0.61359 3.34652,0.20591 5.04023,2.18206 4.73172,5.52075 -0.0891,0.96411 -0.24927,2.03383 -0.35598,2.37717 -0.15105,0.48604 0.67775,1.62634 3.74324,5.15013 2.16549,2.48922 4.05809,4.57009 4.2058,4.62415 0.1477,0.0541 0.59236,-0.0805 0.98815,-0.29899 0.39578,-0.2185 1.90724,-0.4734 3.35879,-0.56647 l 2.63921,-0.16921 2.88317,-4.05768 c 2.8218,-3.9713 3.26941,-4.8967 2.57583,-5.32537 -0.18875,-0.11667 -0.75047,-1.07303 -1.24827,-2.12529 -1.68933,-3.57089 -1.05392,-7.26783 1.72713,-10.048899 1.84115,-1.84115 3.77118,-2.63274 6.419,-2.63274 5.24566,0 8.89519,3.824489 8.81569,9.238279 -0.0355,2.41745 -0.61189,3.78176 -2.40967,5.70372 -2.0952,2.23995 -3.89172,2.92205 -7.36432,2.7961 -2.45844,-0.0891 -2.81558,-0.0316 -3.24675,0.52275 -0.26645,0.34262 -1.61982,2.21596 -3.0075,4.16296 l -2.52304,3.54003 0.87434,1.92223 c 1.91561,4.21148 0.44058,8.41854 -3.53584,10.08488 -1.35792,0.56904 -4.39257,0.53175 -5.55031,-0.0682 z m 4.84821,-3.10567 c 1.16725,-0.60361 1.86256,-1.94954 1.86256,-3.60542 0,-1.09479 -0.19186,-1.49261 -1.2118,-2.51253 -1.0472,-1.04721 -1.40182,-1.21179 -2.61099,-1.21179 -2.93031,0 -4.84222,3.04641 -3.51848,5.60625 1.0619,2.05346 3.41136,2.79256 5.47871,1.72349 z m -30.54538,-1.91587 c 0.71123,-0.64366 0.73988,-2.21268 0.0542,-2.9703 -1.12688,-1.24518 -3.54111,-0.25114 -3.54111,1.45804 0,1.68153 2.23077,2.64902 3.48688,1.51226 z m 13.10941,-18.72772 c 1.30231,-1.17858 0.32955,-3.54111 -1.45803,-3.54111 -1.85565,0 -2.64701,1.95485 -1.35018,3.33526 0.79553,0.84679 2.00224,0.93525 2.80821,0.20585 z m 32.80813,0.0868 c 2.08413,-0.89175 3.34535,-2.90671 3.34535,-5.34464 0,-1.71891 -0.43506,-2.87935 -1.50246,-4.00751 -1.24002,-1.31057 -2.32729,-1.766869 -4.21026,-1.766869 -3.77472,0 -6.72329,4.013009 -5.55331,7.558069 0.42405,1.28489 2.00601,2.98608 3.30675,3.55599 1.23094,0.53933 3.35967,0.54162 4.61393,0.005 z"
         id="path957" />
    </g>
  </g>
</svg>
