<?xml version="1.0" encoding="iso-8859-1"?>
<!-- Generator: Adobe Illustrator 19.0.0, SVG Export Plug-In . SVG Version: 6.00 Build 0)  -->
<svg version="1.1" id="Capa_1" xmlns="http://www.w3.org/2000/svg" xmlns:xlink="http://www.w3.org/1999/xlink" x="0px" y="0px"
	 viewBox="0 0 512 512" style="enable-background:new 0 0 512 512;" xml:space="preserve">
<polygon style="fill:#41C476;" points="394.112,442.555 291.262,299.114 361.693,299.114 268.459,169.083 335.961,169.083 
	220.18,7.606 104.398,169.083 171.9,169.083 78.666,299.114 149.097,299.114 46.248,442.555 "/>
<g>
	<polygon style="fill:#2EAA60;" points="149.096,299.113 182.955,299.113 129.085,442.56 46.247,442.56 	"/>
	<polygon style="fill:#2EAA60;" points="171.904,169.088 194.894,169.088 146.064,299.113 78.665,299.113 	"/>
	<polygon style="fill:#2EAA60;" points="159.549,169.088 104.398,169.088 220.18,7.605 	"/>
</g>
<rect x="294.42" y="417.804" style="fill:#D65E05;" width="61.836" height="86.593"/>
<rect x="319.001" y="459.949" style="fill:#ED6B00;" width="37.256" height="44.452"/>
<rect x="189.259" y="417.804" style="fill:#D65E05;" width="61.836" height="86.593"/>
<rect x="213.84" y="459.949" style="fill:#ED6B00;" width="37.256" height="44.452"/>
<polygon style="fill:#41C476;" points="465.753,442.555 382.721,326.755 439.581,326.755 364.313,221.78 418.807,221.78 
	325.336,91.42 231.866,221.78 286.361,221.78 211.092,326.755 267.952,326.755 184.921,442.555 "/>
<g>
	<polygon style="fill:#2EAA60;" points="325.336,91.419 231.866,221.78 278.333,221.78 	"/>
	<polygon style="fill:#2EAA60;" points="305.737,221.78 286.361,221.78 211.092,326.755 267.886,326.755 	"/>
	<polygon style="fill:#2EAA60;" points="267.952,326.755 184.921,442.555 254.725,442.555 296.479,326.755 	"/>
</g>
<path d="M356.256,512h-61.838c-4.2,0-7.606-3.405-7.606-7.606v-39.602c0-4.2,3.405-7.606,7.606-7.606s7.606,3.405,7.606,7.606
	v31.996h46.627v-31.996c0-4.2,3.405-7.606,7.606-7.606c4.2,0,7.606,3.405,7.606,7.606v39.602
	C363.861,508.595,360.456,512,356.256,512z"/>
<path d="M251.097,512h-61.838c-4.2,0-7.606-3.405-7.606-7.606v-39.602c0-4.2,3.405-7.606,7.606-7.606c4.2,0,7.606,3.405,7.606,7.606
	v31.996h46.627v-31.996c0-4.2,3.405-7.606,7.606-7.606s7.606,3.405,7.606,7.606v39.602C258.703,508.595,255.297,512,251.097,512z"/>
<path d="M161.531,450.161H46.248c-2.852,0-5.463-1.595-6.766-4.131c-1.302-2.536-1.077-5.589,0.585-7.906l94.219-131.404h-55.62
	c-2.852,0-5.464-1.595-6.766-4.131c-1.302-2.536-1.077-5.589,0.585-7.906l84.603-117.994h-52.69c-2.852,0-5.464-1.595-6.766-4.131
	c-1.302-2.536-1.077-5.589,0.585-7.906l57.422-80.083c2.448-3.414,7.2-4.196,10.612-1.749c3.413,2.448,4.197,7.199,1.749,10.612
	l-48.791,68.046h52.69c2.852,0,5.463,1.595,6.766,4.131c1.302,2.536,1.077,5.589-0.585,7.906L93.478,291.508h55.62
	c2.852,0,5.464,1.595,6.766,4.131c1.302,2.536,1.077,5.589-0.585,7.906L61.059,434.95h100.472c4.2,0,7.606,3.405,7.606,7.606
	C169.137,446.756,165.731,450.161,161.531,450.161z"/>
<path d="M290.345,113.059c-2.368,0-4.702-1.102-6.188-3.174L220.18,20.658l-35.489,49.495c-2.448,3.414-7.2,4.196-10.612,1.749
	c-3.413-2.448-4.197-7.199-1.749-10.612l41.67-58.115C215.428,1.181,217.728,0,220.18,0c2.451,0,4.753,1.181,6.181,3.174
	l70.159,97.848c2.448,3.413,1.664,8.165-1.749,10.612C293.428,112.597,291.878,113.059,290.345,113.059z"/>
<path d="M465.753,450.161H184.921c-2.852,0-5.464-1.595-6.766-4.131c-1.302-2.536-1.077-5.589,0.585-7.906l74.399-103.763h-42.047
	c-2.852,0-5.464-1.595-6.766-4.131c-1.302-2.536-1.077-5.589,0.585-7.906l66.638-92.937h-39.682c-2.852,0-5.463-1.595-6.766-4.131
	c-1.302-2.536-1.077-5.589,0.585-7.906l93.47-130.361c1.429-1.993,3.73-3.174,6.181-3.174c2.451,0,4.753,1.181,6.181,3.174
	l93.47,130.361c1.661,2.317,1.887,5.369,0.585,7.906c-1.303,2.536-3.914,4.131-6.766,4.131h-39.682l66.638,92.937
	c1.661,2.317,1.887,5.369,0.585,7.906c-1.302,2.537-3.914,4.131-6.766,4.131h-42.048l32.6,45.466
	c2.448,3.413,1.664,8.165-1.749,10.612c-3.413,2.448-8.165,1.664-10.612-1.749l-41.231-57.504c-1.661-2.317-1.887-5.369-0.585-7.906
	c1.302-2.537,3.914-4.131,6.766-4.131h42.048l-66.638-92.937c-1.661-2.317-1.887-5.369-0.585-7.906
	c1.303-2.536,3.914-4.131,6.766-4.131h39.682l-78.658-109.703L246.68,214.174h39.682c2.852,0,5.463,1.595,6.766,4.131
	c1.302,2.536,1.077,5.589-0.585,7.906l-66.638,92.937h42.047c2.852,0,5.464,1.595,6.766,4.131c1.302,2.536,1.077,5.589-0.585,7.906
	l-74.399,103.763h251.207l-17.303-24.132c-2.448-3.413-1.664-8.165,1.749-10.612c3.414-2.447,8.165-1.664,10.612,1.749
	l25.934,36.169c1.661,2.317,1.887,5.369,0.585,7.906C471.217,448.566,468.604,450.161,465.753,450.161z"/>
<g>
</g>
<g>
</g>
<g>
</g>
<g>
</g>
<g>
</g>
<g>
</g>
<g>
</g>
<g>
</g>
<g>
</g>
<g>
</g>
<g>
</g>
<g>
</g>
<g>
</g>
<g>
</g>
<g>
</g>
</svg>
